# xmcd
#
# Track frame offsets:
# 150
# 11705
# 22475
# 33757
# 45495
# 57287
# 66227
# 78167
# 90100
# 98847
#
# Disc length: 1484 seconds
#
# Revision: 1
# Processed by: cddbd v1.4PL0 Copyright (c) Steve Scherf et al.
# Submitted via: Easy CD Ripper v2.13
#
DISCID=7105ca0a
DTITLE=Patsy Cline - Country Spotlight
DYEAR=1991
DGENRE=Country
TTITLE0=Walkin' After Midnight - Patsy Cline
TTITLE1=Honky Tonk Merry-Go-Round - Patsy Cline
TTITLE2=Just Out Of Reach - Patsy Cline
TTITLE3=In Care Of The Blues - Patsy Cline
TTITLE4=A Poor Mans Roses - Patsy Cline
TTITLE5=Try Again - Patsy Cline
TTITLE6=Never No More - Patsy Cline
TTITLE7=If Only I Could Stay Asleep - Patsy Cline
TTITLE8=Aint No Wheels On This Ship - Patsy Cline
TTITLE9=Fingerprints - Patsy Cline
EXTD=
EXTT0=
EXTT1=
EXTT2=
EXTT3=
EXTT4=
EXTT5=
EXTT6=
EXTT7=
EXTT8=
EXTT9=
PLAYORDER=
